<svg xmlns="http://www.w3.org/2000/svg" width="1080" height="1350" viewBox="0 0 1080 1350"><rect width="1080" height="1350" fill="#f8fafc"/><text x="80" y="150" fill="#0f172a" font-family="Arial" font-size="58" font-weight="800">3. Route automatically</text><text x="80" y="235" fill="#475569" font-family="Arial" font-size="32">Send each enquiry to the right next step.</text><g font-family="Arial" font-size="30" font-weight="700"><rect x="90" y="390" width="230" height="100" rx="24" fill="#0f172a"/><text x="132" y="452" fill="#fff">Website form</text><rect x="425" y="310" width="230" height="100" rx="24" fill="#1d4ed8"/><text x="492" y="372" fill="#fff">Urgent</text><rect x="425" y="465" width="230" height="100" rx="24" fill="#0f766e"/><text x="465" y="527" fill="#fff">Standard</text><rect x="425" y="620" width="230" height="100" rx="24" fill="#7c3aed"/><text x="480" y="682" fill="#fff">Low-fit</text><rect x="760" y="310" width="230" height="100" rx="24" fill="#fff" stroke="#cbd5e1" stroke-width="3"/><text x="815" y="372" fill="#0f172a">Alert team</text><rect x="760" y="465" width="230" height="100" rx="24" fill="#fff" stroke="#cbd5e1" stroke-width="3"/><text x="798" y="527" fill="#0f172a">Book a call</text><rect x="760" y="620" width="230" height="100" rx="24" fill="#fff" stroke="#cbd5e1" stroke-width="3"/><text x="790" y="682" fill="#0f172a">Helpful reply</text></g><path d="M320 440 H390" stroke="#0f172a" stroke-width="8"/><path d="M390 440 V360 H425 M390 440 V515 H425 M390 440 V670 H425" fill="none" stroke="#0f172a" stroke-width="8"/><path d="M655 360 H760 M655 515 H760 M655 670 H760" stroke="#0f172a" stroke-width="8"/><text x="80" y="1015" fill="#0f172a" font-family="Arial" font-size="41" font-weight="800">Faster response. Less admin.</text><text x="80" y="1085" fill="#475569" font-family="Arial" font-size="31">No more vague messages lost in one inbox.</text><text x="80" y="1280" fill="#0f172a" font-family="Arial" font-size="28" font-weight="700">Websiteli</text></svg>